<svg id="Ebene_1" data-name="Ebene 1" xmlns="http://www.w3.org/2000/svg" viewBox="0 0 1280 720"><defs><style>.cls-1{fill:#ffa400;}.cls-2{fill:none;}.cls-3,.cls-4{fill:#fff;}.cls-4{font-size:200.13px;font-family:Noteworthy-Light, Noteworthy;font-weight:300;}.cls-5{letter-spacing:-0.07em;}.cls-6{letter-spacing:-0.02em;}</style></defs><rect class="cls-1" x="206.73" y="126" width="808.85" height="517" rx="11.21"/><path class="cls-2" d="M723.73,185.58V384.05H494.41V155.19H723.73v21c-.29-1.75-.61-3.5-.86-5.25-.93-6.56-6.21-11.79-12.65-12.18-13.24-.81-25.84,1.83-36.76,9.36-8.3,5.73-15.85,12.57-23.47,19.22a28.17,28.17,0,0,0-9.88,19.89,96.4,96.4,0,0,0,.37,14.71,23.1,23.1,0,0,1-7,19.39q-54.22,55.44-108.23,111.1c-4.06,4.16-5.93,9-5,14.81,1.25,7.8,5.57,13,13.13,15.34s14.24,0,19.27-6.23l37.45-46.44q30.15-37.4,60.3-74.8c3.88-4.84,8.68-7.83,14.94-8.28,4.23-.31,8.47-.52,12.7-.86,9.32-.77,17.1-4.65,22.72-12.14,4.59-6.14,8.77-12.58,13-19a57,57,0,0,0,8.15-19.21C722.67,192.33,723.14,188.94,723.73,185.58ZM560.71,210a12.82,12.82,0,0,0-1.39-1.93Q541.18,189.9,523,171.73a13.5,13.5,0,0,0-1.81-1.66,3.35,3.35,0,0,0-4.7,4.68,13.47,13.47,0,0,0,1.66,1.8l36.51,36.52c.55.55,1.07,1.13,1.34,1.42l-2.24,3.16c-.84-1-1.34-1.65-1.91-2.23Q533.44,197,515,178.6c-2.16-2.15-4-2.41-5.63-.83s-1.35,3.47.76,5.64l1.27,1.26,35.71,35.72c.56.56,1.09,1.15,1.62,1.71-2.43,3.12-3.25,3.19-5.86.58l-15.33-15.32Q518.4,198.2,509.23,189c-2.18-2.2-4.69-3.45-7.83-2.79-6.36,1.32-8.53,8.38-4.15,13.6q18.59,22.17,37.24,44.29a27,27,0,0,0,17.31,9.75,130.69,130.69,0,0,0,17.15.69,20.92,20.92,0,0,1,16.71,7.52c1.4,1.64,2.87,3.23,4.37,4.78,1.67,1.73,3.68,1.91,5.13.57s1.55-3.3-.1-5.16c-2.22-2.51-4.46-5-6.84-7.36a22.4,22.4,0,0,0-14-6.75c-5.41-.43-10.86-.28-16.29-.46-7.57-.24-14-2.89-18.95-8.87-6.65-8-13.41-16-20.12-24-5.37-6.39-10.77-12.75-16.07-19.19-.47-.57-.34-1.65-.49-2.49a15,15,0,0,1,2.26.91,8.59,8.59,0,0,1,1.44,1.39Q522,211.56,538.07,227.6c5.22,5.22,10,5.19,15.26-.07l13.43-13.44c5-5,5-9.91-.06-14.93Q550.35,182.8,534,166.45c-.37-.37-.86-.67-1.07-1.12a12,12,0,0,1-.61-2.09c.71.08,1.43.12,2.13.26.25.06.46.36.69.55q21.54,18.12,43.08,36.25a22.5,22.5,0,0,1,8.28,16.23c.33,4.74.31,9.52.31,14.28,0,5.69,1.25,11.06,4.8,15.49,2.77,3.45,6.19,6.41,9.42,9.49,1.86,1.77,3.9,1.75,5.3.19s1.06-3.54-.79-5.3c-1.69-1.58-3.42-3.11-5.12-4.66a19.85,19.85,0,0,1-6.76-15.23c0-4.1.1-8.2,0-12.29-.31-9.11-3.4-17-10.5-23Q561.25,177,539.32,158.64a15.56,15.56,0,0,0-2-1.5,7.75,7.75,0,0,0-8.27-.14,7.62,7.62,0,0,0-4,7c0,2.66,1.31,4.63,3.12,6.43Q545,187.19,561.76,204C564.32,206.52,564.22,207.4,560.71,210ZM722.4,364.37a16.79,16.79,0,0,0-5.94-12.67q-36-32.77-72.05-65.59c-2.78-2.54-4.73-2.85-6.31-1s-.94,3.66,1.68,6.06l71.87,65.45a11,11,0,0,1,1.69,15.08c-3.66,5.21-12.53,6.81-17.66,1.12-21.22-23.59-42.68-47-64-70.43a14.21,14.21,0,0,0-1.74-1.73,3.34,3.34,0,0,0-4.86,4.49,19.63,19.63,0,0,0,2,2.38q31.9,35,63.83,70a18.3,18.3,0,0,0,3.88,3.32C706.7,388.11,722,379.22,722.4,364.37Z"/><path class="cls-3" d="M723.73,185.58c-.59,3.36-1.06,6.75-1.8,10.07a57,57,0,0,1-8.15,19.21c-4.23,6.39-8.41,12.83-13,19-5.62,7.49-13.4,11.37-22.72,12.14-4.23.34-8.47.55-12.7.86-6.26.45-11.06,3.44-14.94,8.28q-30.1,37.44-60.3,74.8l-37.45,46.44c-5,6.25-11.7,8.53-19.27,6.23s-11.88-7.54-13.13-15.34c-.92-5.82,1-10.65,5-14.81q54.11-55.56,108.23-111.1a23.1,23.1,0,0,0,7-19.39,96.4,96.4,0,0,1-.37-14.71A28.17,28.17,0,0,1,650,187.34c7.62-6.65,15.17-13.49,23.47-19.22,10.92-7.53,23.52-10.17,36.76-9.36,6.44.39,11.72,5.62,12.65,12.18.25,1.75.57,3.5.86,5.25Zm-7-7.09c-.16-1.53-.35-3.9-.66-6.26a7.38,7.38,0,0,0-7.37-6.74c-11.45-.37-22.45,1.86-31.79,8.53a260,260,0,0,0-23.77,19.89c-4.41,4-6.41,9.65-6.4,15.72,0,4.61.23,9.23.56,13.83.65,8.84-2.47,16-8.61,22.33-36.23,37.09-72.28,74.34-108.6,111.34-5.49,5.59-3.4,16,4.33,18.62,4.51,1.52,9.11,1.1,13.51-4.38q48.64-60.64,97.54-121.09c4.55-5.65,10.28-9.24,17.51-10.09,4.29-.51,8.61-.74,12.93-.92a25.26,25.26,0,0,0,20.86-11.49q5-7.28,9.92-14.58A57.1,57.1,0,0,0,716.78,178.49Z"/><path class="cls-3" d="M560.71,210c3.51-2.62,3.61-3.5,1-6.06q-16.74-16.76-33.5-33.5c-1.81-1.8-3.13-3.77-3.12-6.43a7.62,7.62,0,0,1,4-7,7.75,7.75,0,0,1,8.27.14,15.56,15.56,0,0,1,2,1.5q21.9,18.39,43.77,36.82c7.1,6,10.19,13.93,10.5,23,.15,4.09,0,8.19,0,12.29A19.85,19.85,0,0,0,600.4,246c1.7,1.55,3.43,3.08,5.12,4.66,1.85,1.76,2.14,3.8.79,5.3s-3.44,1.58-5.3-.19c-3.23-3.08-6.65-6-9.42-9.49-3.55-4.43-4.81-9.8-4.8-15.49,0-4.76,0-9.54-.31-14.28a22.5,22.5,0,0,0-8.28-16.23q-21.56-18.11-43.08-36.25c-.23-.19-.44-.49-.69-.55-.7-.14-1.42-.18-2.13-.26a12,12,0,0,0,.61,2.09c.21.45.7.75,1.07,1.12q16.37,16.35,32.72,32.71c5,5,5,10,.06,14.93l-13.43,13.44c-5.27,5.26-10,5.29-15.26.07Q522,211.57,506,195.51a8.59,8.59,0,0,0-1.44-1.39,15,15,0,0,0-2.26-.91c.15.84,0,1.92.49,2.49,5.3,6.44,10.7,12.8,16.07,19.19,6.71,8,13.47,15.92,20.12,24,4.94,6,11.38,8.63,18.95,8.87,5.43.18,10.88,0,16.29.46a22.4,22.4,0,0,1,14,6.75c2.38,2.34,4.62,4.85,6.84,7.36,1.65,1.86,1.62,3.75.1,5.16s-3.46,1.16-5.13-.57c-1.5-1.55-3-3.14-4.37-4.78A20.92,20.92,0,0,0,569,254.57a130.69,130.69,0,0,1-17.15-.69,27,27,0,0,1-17.31-9.75Q515.86,222,497.25,199.84c-4.38-5.22-2.21-12.28,4.15-13.6,3.14-.66,5.65.59,7.83,2.79q9.15,9.18,18.33,18.33l15.33,15.32c2.61,2.61,3.43,2.54,5.86-.58-.53-.56-1.06-1.15-1.62-1.71l-35.71-35.72-1.27-1.26c-2.11-2.17-2.37-4-.76-5.64s3.47-1.32,5.63.83q18.42,18.41,36.82,36.82c.57.58,1.07,1.25,1.91,2.23l2.24-3.16c-.27-.29-.79-.87-1.34-1.42l-36.51-36.52a13.47,13.47,0,0,1-1.66-1.8,3.35,3.35,0,0,1,4.7-4.68,13.5,13.5,0,0,1,1.81,1.66q18.18,18.17,36.33,36.36A12.82,12.82,0,0,1,560.71,210Z"/><path class="cls-3" d="M722.4,364.37c-.38,14.85-15.7,23.74-27.65,16.51a18.3,18.3,0,0,1-3.88-3.32q-31.95-35-63.83-70a19.63,19.63,0,0,1-2-2.38,3.34,3.34,0,0,1,4.86-4.49,14.21,14.21,0,0,1,1.74,1.73c21.37,23.46,42.83,46.84,64,70.43,5.13,5.69,14,4.09,17.66-1.12a11,11,0,0,0-1.69-15.08l-71.87-65.45c-2.62-2.4-3.17-4.32-1.68-6.06s3.53-1.54,6.31,1q36,32.81,72.05,65.59A16.79,16.79,0,0,1,722.4,364.37Z"/><path class="cls-2" d="M716.78,178.49a57.1,57.1,0,0,1-10,34.71q-4.95,7.29-9.92,14.58A25.26,25.26,0,0,1,676,239.27c-4.32.18-8.64.41-12.93.92-7.23.85-13,4.44-17.51,10.09Q596.74,310.82,548,371.37c-4.4,5.48-9,5.9-13.51,4.38-7.73-2.6-9.82-13-4.33-18.62,36.32-37,72.37-74.25,108.6-111.34,6.14-6.29,9.26-13.49,8.61-22.33-.33-4.6-.56-9.22-.56-13.83,0-6.07,2-11.69,6.4-15.72A260,260,0,0,1,677,174c9.34-6.67,20.34-8.9,31.79-8.53a7.38,7.38,0,0,1,7.37,6.74C716.43,174.59,716.62,177,716.78,178.49Z"/><text class="cls-4" transform="translate(298.65 566.6)">Coo<tspan class="cls-5" x="303.19" y="0">k</tspan><tspan x="384.24" y="0">e</tspan><tspan class="cls-6" x="468.79" y="0">r</tspan><tspan x="532.84" y="0">y</tspan></text></svg>